<svg width="379" height="45" viewBox="0 0 379 45" fill="none" xmlns="http://www.w3.org/2000/svg">
<path d="M14.608 43.9051H0.210938V1.71533H14.7332C21.0763 1.71533 26.2717 3.67668 30.3196 7.59936C34.3675 11.4803 36.3914 16.3211 36.3914 22.1216C36.3914 28.882 34.3884 34.2027 30.3822 38.0836C26.4178 41.9646 21.1597 43.9051 14.608 43.9051ZM14.4202 9.66504H10.1011V36.018H14.4828C18.3638 36.018 21.3475 34.8078 23.4341 32.3874C25.5623 29.967 26.6265 26.5451 26.6265 22.1216C26.6265 18.3659 25.5623 15.3613 23.4341 13.1078C21.3058 10.8126 18.3012 9.66504 14.4202 9.66504Z" fill="white"/>
<path d="M53.2296 43.9051H43.5898V1.71533H53.2296V43.9051Z" fill="white"/>
<path d="M71.633 43.9051H61.9932V1.71533H72.5719L82.3995 19.1796C83.7766 21.6417 84.9659 23.9578 85.9674 26.1278C87.0107 28.2561 87.6784 29.7583 87.9705 30.6347L88.4713 32.0118C88.054 28.9237 87.8453 24.6463 87.8453 19.1796V1.71533H97.4851V43.9051H86.9064L76.8284 26.4408C75.493 24.1873 74.3037 21.9756 73.2604 19.8056C72.2589 17.5939 71.5704 15.9664 71.1948 14.9231L70.694 13.3582C71.32 17.114 71.633 21.4748 71.633 26.4408V43.9051Z" fill="white"/>
<path d="M129.972 43.9051H120.332L123.963 1.71533H134.541L140.425 16.9888C141.427 19.5343 142.282 21.8712 142.992 23.9995C143.701 26.1278 144.16 27.6301 144.369 28.5064L144.682 29.7584C145.35 27.0041 146.81 22.7476 149.064 16.9888L155.01 1.71533H165.589L169.971 43.9051H160.331L158.766 27.5675L157.952 15.2361C156.867 18.3659 155.365 22.4763 153.445 27.5675L147.499 43.4669H141.802L135.918 27.5675C134.959 24.9802 134.145 22.6641 133.477 20.6193C132.809 18.5745 132.371 17.1557 132.163 16.3628L131.85 15.2361C131.85 18.199 131.662 22.3094 131.286 27.5675L129.972 43.9051Z" fill="white"/>
<path d="M183.68 43.9051H173.602L193.945 1.71533H227.935V9.41464H211.66V18.9918H226.182V26.6285H211.66V36.2057H228.185V43.9051H202.333V35.2668H187.999L183.68 43.9051ZM192.693 26.0026L191.942 27.5049H202.333V5.4711C200.622 9.89455 197.409 16.7384 192.693 26.0026Z" fill="white"/>
<path d="M272.378 40.0243C268.372 42.9454 263.323 44.406 257.23 44.406C250.47 44.406 244.982 42.4655 240.767 38.5846C236.553 34.7036 234.445 29.4247 234.445 22.7478C234.445 16.1543 236.636 10.8754 241.018 6.91099C245.441 2.94657 251.033 0.964355 257.794 0.964355C262.551 0.964355 266.661 1.8407 270.125 3.59339V13.2332C266.119 10.938 262.008 9.7904 257.794 9.7904C253.829 9.7904 250.679 10.9797 248.342 13.3584C246.005 15.6953 244.836 18.8251 244.836 22.7478C244.836 26.7122 245.984 29.8629 248.279 32.1998C250.574 34.5367 253.704 35.7052 257.668 35.7052C259.463 35.7052 261.236 35.4339 262.989 34.8914V26.9417H256.166V18.7416H272.378V40.0243Z" fill="white"/>
<path d="M305.428 43.9051H280.202V1.71533H289.842V35.4546H305.428V43.9051Z" fill="white"/>
<path d="M336.977 43.9051H310.749V1.71533H336.726V9.41464H320.451V18.9918H334.974V26.6285H320.451V36.2057H336.977V43.9051Z" fill="white"/>
<path d="M359.199 9.53983H354.442V21.4331H359.011C363.184 21.4331 365.271 19.3883 365.271 15.2987C365.271 13.5043 364.728 12.1063 363.643 11.1047C362.558 10.0615 361.077 9.53983 359.199 9.53983ZM354.442 43.9051H344.802V1.71533H359.387C364.102 1.71533 367.879 2.96726 370.717 5.4711C373.596 7.97494 375.036 11.2299 375.036 15.2361C375.036 21.2453 372.469 25.3975 367.336 27.6927L378.04 43.9051H366.523L357.384 29.2576H354.442V43.9051Z" fill="white"/>
</svg>
